# xmcd
#
# Track frame offsets:
#	150
#	15350
#	32321
#	49390
#	66708
#	83842
#	98623
#	114301
#	129656
#	145614
#	159345
#	176200
#	190706
#	206596
#	224531
#	243855
#	257844
#	273040
#	288571
#
# Disc length: 4007 seconds
#
# Revision: 1
# Processed by: cddbd v1.5.2PL0 Copyright (c) Steve Scherf et al.
# Submitted via: audiograbber 1.83.01
#
DISCID=0c0fa513
DTITLE=Various Artist - Promo Only Country Radio Oct 2016
DYEAR=2016
DGENRE=Country
TTITLE0=Toby Keith - A Few More Cowboys
TTITLE1=Cole Swindell - Middle Of A Memory
TTITLE2=Luke Bryan - Move
TTITLE3=The Band Perry - Comeback Kid
TTITLE4=Keith Urban - Blue Ain't Your Color
TTITLE5=Eric Chruch - Kill A Word
TTITLE6=Aaron Goodvin - Woman In Love
TTITLE7=Chris Lane - For Her
TTITLE8=Cody Jinks - I'm Not The Devil
TTITLE9=Jake Worthington - How Do You Honky Tonk
TTITLE10=Florida Georgia Line f. Tim McGraw - May We All
TTITLE11=Jake Owen f. Ronnie Dunn - American Country Love Song (Duet)
TTITLE12=Kenny Chesney f. Pink - Setting The World On Fire
TTITLE13=Aaron Lewis - That Ain't Country (Promo Only Verified Clean Intro Edit
TTITLE13=)
TTITLE14=Shawn B. Wells - As Long As I've Got You
TTITLE15=Brantley Gilbert - The Weekend
TTITLE16=Casey Donahew - Kiss Me
TTITLE17=Adam Craig - Reckon
TTITLE18=Kevin MaC - #Winning
EXTD=
EXTT0=
EXTT1=
EXTT2=
EXTT3=
EXTT4=
EXTT5=
EXTT6=
EXTT7=
EXTT8=
EXTT9=
EXTT10=
EXTT11=
EXTT12=
EXTT13=
EXTT14=
EXTT15=
EXTT16=
EXTT17=
EXTT18=
PLAYORDER=
